<svg width="96" height="96" xmlns="http://www.w3.org/2000/svg" xmlns:xlink="http://www.w3.org/1999/xlink" xml:space="preserve" overflow="hidden"><g transform="translate(-970 -195)"><path d="M1003 225.8C1003 230.771 998.971 234.8 994 234.8 989.029 234.8 985 230.771 985 225.8 985 220.829 989.029 216.8 994 216.8 998.971 216.8 1003 220.829 1003 225.8Z" fill="#FFC000"/><path d="M1051 225.8C1051 230.771 1046.97 234.8 1042 234.8 1037.03 234.8 1033 230.771 1033 225.8 1033 220.829 1037.03 216.8 1042 216.8 1046.97 216.8 1051 220.829 1051 225.8Z" fill="#FFC000"/><path d="M1036 269.2 1036 260.2C1036 258.8 1035.4 257.4 1034.2 256.6 1031.8 254.6 1028.6 253.2 1025.4 252.4 1023.2 251.8 1020.6 251.2 1018 251.2 1015.6 251.2 1013 251.6 1010.6 252.4 1007.4 253.2 1004.4 254.8 1001.8 256.6 1000.6 257.6 1000 258.8 1000 260.2L1000 269.2 1036 269.2Z" fill="#FFC000"/><path d="M1027 239.8C1027 244.771 1022.97 248.8 1018 248.8 1013.03 248.8 1009 244.771 1009 239.8 1009 234.829 1013.03 230.8 1018 230.8 1022.97 230.8 1027 234.829 1027 239.8Z" fill="#FFC000"/><path d="M1058.2 242.6C1055.8 240.6 1052.6 239.2 1049.4 238.4 1047.2 237.8 1044.6 237.2 1042 237.2 1039.6 237.2 1037 237.6 1034.6 238.4 1033.4 238.8 1032.2 239.2 1031 239.8L1031 240C1031 243.4 1029.6 246.6 1027.4 248.8 1031.2 250 1034.2 251.6 1036.6 253.4 1037.2 254 1037.8 254.4 1038.2 255.2L1060 255.2 1060 246.2C1060 244.8 1059.4 243.4 1058.2 242.6Z" fill="#FFC000"/><path d="M999.4 253.4 999.4 253.4C1002.2 251.4 1005.4 249.8 1008.6 248.8 1006.4 246.4 1005 243.4 1005 240 1005 239.8 1005 239.8 1005 239.6 1003.8 239.2 1002.6 238.6 1001.4 238.4 999.2 237.8 996.6 237.2 994 237.2 991.6 237.2 989 237.6 986.6 238.4 983.4 239.4 980.4 240.8 977.8 242.6 976.6 243.4 976 244.8 976 246.2L976 255.2 997.6 255.2C998.2 254.4 998.6 254 999.4 253.4Z" fill="#FFC000"/></g></svg>